<?xml version="1.0" encoding="UTF-8"?>
<svg xmlns="http://www.w3.org/2000/svg" xmlns:xlink="http://www.w3.org/1999/xlink" width="128" height="128" viewBox="0 0 128 128">
<defs>
<clipPath id="clip-0">
<path clip-rule="nonzero" d="M 12.800781 0 L 115.199219 0 C 122.269531 0 128 5.730469 128 12.800781 L 128 115.199219 C 128 122.269531 122.269531 128 115.199219 128 L 12.800781 128 C 5.730469 128 0 122.269531 0 115.199219 L 0 12.800781 C 0 5.730469 5.730469 0 12.800781 0 Z M 12.800781 0 "/>
</clipPath>
<clipPath id="clip-1">
<path clip-rule="nonzero" d="M 6 64 L 53 64 L 53 88 L 6 88 Z M 6 64 "/>
</clipPath>
<clipPath id="clip-2">
<path clip-rule="nonzero" d="M 12.800781 0 L 115.199219 0 C 122.269531 0 128 5.730469 128 12.800781 L 128 115.199219 C 128 122.269531 122.269531 128 115.199219 128 L 12.800781 128 C 5.730469 128 0 122.269531 0 115.199219 L 0 12.800781 C 0 5.730469 5.730469 0 12.800781 0 Z M 12.800781 0 "/>
</clipPath>
<clipPath id="clip-3">
<path clip-rule="nonzero" d="M 6 40 L 53 40 L 53 64 L 6 64 Z M 6 40 "/>
</clipPath>
<clipPath id="clip-4">
<path clip-rule="nonzero" d="M 12.800781 0 L 115.199219 0 C 122.269531 0 128 5.730469 128 12.800781 L 128 115.199219 C 128 122.269531 122.269531 128 115.199219 128 L 12.800781 128 C 5.730469 128 0 122.269531 0 115.199219 L 0 12.800781 C 0 5.730469 5.730469 0 12.800781 0 Z M 12.800781 0 "/>
</clipPath>
<clipPath id="clip-5">
<path clip-rule="nonzero" d="M 52 64 L 99 64 L 99 88 L 52 88 Z M 52 64 "/>
</clipPath>
<clipPath id="clip-6">
<path clip-rule="nonzero" d="M 12.800781 0 L 115.199219 0 C 122.269531 0 128 5.730469 128 12.800781 L 128 115.199219 C 128 122.269531 122.269531 128 115.199219 128 L 12.800781 128 C 5.730469 128 0 122.269531 0 115.199219 L 0 12.800781 C 0 5.730469 5.730469 0 12.800781 0 Z M 12.800781 0 "/>
</clipPath>
<clipPath id="clip-7">
<path clip-rule="nonzero" d="M 75 40 L 122 40 L 122 64 L 75 64 Z M 75 40 "/>
</clipPath>
<clipPath id="clip-8">
<path clip-rule="nonzero" d="M 12.800781 0 L 115.199219 0 C 122.269531 0 128 5.730469 128 12.800781 L 128 115.199219 C 128 122.269531 122.269531 128 115.199219 128 L 12.800781 128 C 5.730469 128 0 122.269531 0 115.199219 L 0 12.800781 C 0 5.730469 5.730469 0 12.800781 0 Z M 12.800781 0 "/>
</clipPath>
</defs>
<g clip-path="url(#clip-0)">
<path fill="none" stroke-width="38.203867" stroke-linecap="butt" stroke-linejoin="miter" stroke="rgb(100%, 68.235294%, 0%)" stroke-opacity="1" stroke-miterlimit="10" d="M -72.40663 -90.509668 L -72.40663 90.509668 " transform="matrix(0.707107, 0.707107, -0.707107, 0.707107, 64, 64)"/>
<path fill="none" stroke-width="38.203867" stroke-linecap="butt" stroke-linejoin="miter" stroke="rgb(94.901961%, 54.588235%, 18.980392%)" stroke-opacity="1" stroke-miterlimit="10" d="M -36.206077 -90.509668 L -36.206077 90.509668 " transform="matrix(0.707107, 0.707107, -0.707107, 0.707107, 64, 64)"/>
<path fill="none" stroke-width="38.203867" stroke-linecap="butt" stroke-linejoin="miter" stroke="rgb(89.803922%, 40.941176%, 37.960784%)" stroke-opacity="1" stroke-miterlimit="10" d="M 0 -90.509668 L 0 90.509668 " transform="matrix(0.707107, 0.707107, -0.707107, 0.707107, 64, 64)"/>
<path fill="none" stroke-width="38.203867" stroke-linecap="butt" stroke-linejoin="miter" stroke="rgb(84.705882%, 27.294118%, 56.941176%)" stroke-opacity="1" stroke-miterlimit="10" d="M 36.206077 -90.509668 L 36.206077 90.509668 " transform="matrix(0.707107, 0.707107, -0.707107, 0.707107, 64, 64)"/>
<path fill="none" stroke-width="38.203867" stroke-linecap="butt" stroke-linejoin="miter" stroke="rgb(79.607843%, 13.647059%, 75.921569%)" stroke-opacity="1" stroke-miterlimit="10" d="M 72.40663 -90.509668 L 72.40663 90.509668 " transform="matrix(0.707107, 0.707107, -0.707107, 0.707107, 64, 64)"/>
</g>
<g clip-path="url(#clip-1)">
<g clip-path="url(#clip-2)">
<path fill-rule="nonzero" fill="rgb(100%, 100%, 100%)" fill-opacity="1" d="M 52.480469 87.039062 C 52.480469 74.316406 42.164062 64 29.441406 64 C 16.714844 64 6.398438 74.316406 6.398438 87.039062 Z M 52.480469 87.039062 "/>
</g>
</g>
<g clip-path="url(#clip-3)">
<g clip-path="url(#clip-4)">
<path fill-rule="nonzero" fill="rgb(100%, 100%, 100%)" fill-opacity="1" d="M 6.398438 40.960938 C 6.398438 53.683594 16.714844 64 29.441406 64 C 42.164062 64 52.480469 53.683594 52.480469 40.960938 Z M 6.398438 40.960938 "/>
</g>
</g>
<g clip-path="url(#clip-5)">
<g clip-path="url(#clip-6)">
<path fill-rule="nonzero" fill="rgb(100%, 100%, 100%)" fill-opacity="1" d="M 52.480469 64 C 52.480469 76.726562 62.796875 87.039062 75.519531 87.039062 C 88.246094 87.039062 98.558594 76.726562 98.558594 64 Z M 52.480469 64 "/>
</g>
</g>
<g clip-path="url(#clip-7)">
<g clip-path="url(#clip-8)">
<path fill-rule="nonzero" fill="rgb(100%, 100%, 100%)" fill-opacity="1" d="M 121.601562 64 C 121.601562 51.273438 111.285156 40.960938 98.558594 40.960938 C 85.835938 40.960938 75.519531 51.273438 75.519531 64 Z M 121.601562 64 "/>
</g>
</g>
</svg>
