<?xml version="1.0" encoding="UTF-8" standalone="no"?>
<svg
   width="110"
   height="44"
   viewBox="9 42 110 44"
   version="1.1"
   id="svg10"
   sodipodi:docname="icon_small_xs_only.svg"
   inkscape:version="1.2 (dc2aeda, 2022-05-15)"
   xmlns:inkscape="http://www.inkscape.org/namespaces/inkscape"
   xmlns:sodipodi="http://sodipodi.sourceforge.net/DTD/sodipodi-0.dtd"
   xmlns="http://www.w3.org/2000/svg"
   xmlns:svg="http://www.w3.org/2000/svg">
  <defs
     id="defs14" />
  <sodipodi:namedview
     id="namedview12"
     pagecolor="#ffffff"
     bordercolor="#000000"
     borderopacity="0.25"
     inkscape:showpageshadow="2"
     inkscape:pageopacity="0.0"
     inkscape:pagecheckerboard="0"
     inkscape:deskcolor="#d1d1d1"
     showgrid="false"
     inkscape:zoom="3.9014397"
     inkscape:cx="111.11283"
     inkscape:cy="83.687055"
     inkscape:window-width="2056"
     inkscape:window-height="1261"
     inkscape:window-x="0"
     inkscape:window-y="40"
     inkscape:window-maximized="1"
     inkscape:current-layer="svg10" />
  <path
     fill-rule="nonzero"
     fill="rgb(100%, 100%, 100%)"
     fill-opacity="1"
     d="M 53 86 C 53 73.851562 43.148438 64 31 64 C 18.851562 64 9 73.851562 9 86 Z M 53 86 "
     id="path2" />
  <path
     fill-rule="nonzero"
     fill="rgb(100%, 100%, 100%)"
     fill-opacity="1"
     d="M 9 42 C 9 54.148438 18.851562 64 31 64 C 43.148438 64 53 54.148438 53 42 Z M 9 42 "
     id="path4" />
  <path
     fill-rule="nonzero"
     fill="rgb(100%, 100%, 100%)"
     fill-opacity="1"
     d="M 53 64 C 53 76.148438 62.851562 86 75 86 C 87.148438 86 97 76.148438 97 64 Z M 53 64 "
     id="path6" />
  <path
     fill-rule="nonzero"
     fill="rgb(100%, 100%, 100%)"
     fill-opacity="1"
     d="M 119 64 C 119 51.851562 109.148438 42 97 42 C 84.851562 42 75 51.851562 75 64 Z M 119 64 "
     id="path8" />
</svg>
