<?xml version='1.0' encoding='utf-8'?>
<svg xmlns="http://www.w3.org/2000/svg" width="128" height="128" viewBox="0 0 128 128">
<defs>
</defs>
<g>
<path fill="none" stroke-width="15" stroke-linecap="butt" stroke-linejoin="miter" stroke="rgb(74.509804%, 0%, 94.901961%)" stroke-opacity="1" stroke-miterlimit="10" d="M 35 -79.5 L 291 176.5 " transform="matrix(1, 0, 0, -1, 64, 64)" />
<path fill="none" stroke-width="15" stroke-linecap="butt" stroke-linejoin="miter" stroke="rgb(76.470588%, 5.248869%, 87.60181%)" stroke-opacity="1" stroke-miterlimit="10" d="M 14.785156 -79.5 L 270.785156 176.5 " transform="matrix(1, 0, 0, -1, 64, 64)" />
<path fill="none" stroke-width="15" stroke-linecap="butt" stroke-linejoin="miter" stroke="rgb(78.431373%, 10.497738%, 80.301659%)" stroke-opacity="1" stroke-miterlimit="10" d="M -5.425781 -79.5 L 250.574219 176.5 " transform="matrix(1, 0, 0, -1, 64, 64)" />
<path fill="none" stroke-width="15" stroke-linecap="butt" stroke-linejoin="miter" stroke="rgb(80.392157%, 15.746606%, 73.001508%)" stroke-opacity="1" stroke-miterlimit="10" d="M -25.640625 -79.5 L 230.359375 176.5 " transform="matrix(1, 0, 0, -1, 64, 64)" />
<path fill="none" stroke-width="15" stroke-linecap="butt" stroke-linejoin="miter" stroke="rgb(82.352941%, 20.995475%, 65.701357%)" stroke-opacity="1" stroke-miterlimit="10" d="M -45.851562 -79.5 L 210.148438 176.5 " transform="matrix(1, 0, 0, -1, 64, 64)" />
<path fill="none" stroke-width="15" stroke-linecap="butt" stroke-linejoin="miter" stroke="rgb(84.313725%, 26.244344%, 58.401207%)" stroke-opacity="1" stroke-miterlimit="10" d="M -66.066406 -79.5 L 189.933594 176.5 " transform="matrix(1, 0, 0, -1, 64, 64)" />
<path fill="none" stroke-width="15" stroke-linecap="butt" stroke-linejoin="miter" stroke="rgb(86.27451%, 31.493213%, 51.101056%)" stroke-opacity="1" stroke-miterlimit="10" d="M -86.277344 -79.5 L 169.722656 176.5 " transform="matrix(1, 0, 0, -1, 64, 64)" />
<path fill="none" stroke-width="15" stroke-linecap="butt" stroke-linejoin="miter" stroke="rgb(88.235294%, 36.742081%, 43.800905%)" stroke-opacity="1" stroke-miterlimit="10" d="M -106.492188 -79.5 L 149.507812 176.5 " transform="matrix(1, 0, 0, -1, 64, 64)" />
<path fill="none" stroke-width="15" stroke-linecap="butt" stroke-linejoin="miter" stroke="rgb(90.196078%, 41.99095%, 36.500754%)" stroke-opacity="1" stroke-miterlimit="10" d="M -126.707031 -79.5 L 129.292969 176.5 " transform="matrix(1, 0, 0, -1, 64, 64)" />
<path fill="none" stroke-width="15" stroke-linecap="butt" stroke-linejoin="miter" stroke="rgb(92.156863%, 47.239819%, 29.200603%)" stroke-opacity="1" stroke-miterlimit="10" d="M -146.917969 -79.5 L 109.082031 176.5 " transform="matrix(1, 0, 0, -1, 64, 64)" />
<path fill="none" stroke-width="15" stroke-linecap="butt" stroke-linejoin="miter" stroke="rgb(94.117647%, 52.488688%, 21.900452%)" stroke-opacity="1" stroke-miterlimit="10" d="M -167.132812 -79.5 L 88.867188 176.5 " transform="matrix(1, 0, 0, -1, 64, 64)" />
<path fill="none" stroke-width="15" stroke-linecap="butt" stroke-linejoin="miter" stroke="rgb(96.078431%, 57.737557%, 14.600302%)" stroke-opacity="1" stroke-miterlimit="10" d="M -187.34375 -79.5 L 68.65625 176.5 " transform="matrix(1, 0, 0, -1, 64, 64)" />
<path fill="none" stroke-width="15" stroke-linecap="butt" stroke-linejoin="miter" stroke="rgb(98.039216%, 62.986425%, 7.300151%)" stroke-opacity="1" stroke-miterlimit="10" d="M -207.558594 -79.5 L 48.441406 176.5 " transform="matrix(1, 0, 0, -1, 64, 64)" />
</g>
<g>
<g>
<path fill-rule="nonzero" fill="rgb(100%, 100%, 100%)" fill-opacity="1" d="M 53 86 C 53 73.851562 43.148438 64 31 64 C 18.851562 64 9 73.851562 9 86 Z M 53 86 "><animateTransform attributeName="transform" type="translate" values="0,0; 0,0; 0,-22; 0,-22; 0,0; 0,0" dur="3s" keyTimes="0; 0.25; 0.35; 0.65; 0.75; 1" repeatCount="indefinite" calcMode="spline" keySplines="0.42 0 0.58 1; 0.42 0 0.58 1; 0 0 0 0; 0.42 0 0.58 1; 0.42 0 0.58 1" additive="sum" /></path>
</g>
</g>
<g>
<g>
<path fill-rule="nonzero" fill="rgb(100%, 100%, 100%)" fill-opacity="1" d="M 9 42 C 9 54.148438 18.851562 64 31 64 C 43.148438 64 53 54.148438 53 42 Z M 9 42 "><animateTransform attributeName="transform" type="translate" values="0,0; 0,0; 0,22; 0,22; 0,0; 0,0" dur="3s" keyTimes="0; 0.25; 0.35; 0.65; 0.75; 1" repeatCount="indefinite" calcMode="spline" keySplines="0.42 0 0.58 1; 0.42 0 0.58 1; 0 0 0 0; 0.42 0 0.58 1; 0.42 0 0.58 1" additive="sum" /></path>
</g>
</g>
<g>
<g>
<path fill-rule="nonzero" fill="rgb(100%, 100%, 100%)" fill-opacity="1" d="M 53 64 C 53 76.148438 62.851562 86 75 86 C 87.148438 86 97 76.148438 97 64 Z M 53 64 "><animateTransform attributeName="transform" type="translate" values="0,0; 0,0; 11.0,0; 11.0,0; 0,0; 0,0" dur="3s" keyTimes="0; 0.25; 0.35; 0.65; 0.75; 1" repeatCount="indefinite" calcMode="spline" keySplines="0.42 0 0.58 1; 0.42 0 0.58 1; 0 0 0 0; 0.42 0 0.58 1; 0.42 0 0.58 1" additive="sum" /></path>
</g>
</g>
<g>
<g>
<path fill-rule="nonzero" fill="rgb(100%, 100%, 100%)" fill-opacity="1" d="M 119 64 C 119 51.851562 109.148438 42 97 42 C 84.851562 42 75 51.851562 75 64 Z M 119 64 "><animateTransform attributeName="transform" type="translate" values="0,0; 0,0; -11.0,0; -11.0,0; 0,0; 0,0" dur="3s" keyTimes="0; 0.25; 0.35; 0.65; 0.75; 1" repeatCount="indefinite" calcMode="spline" keySplines="0.42 0 0.58 1; 0.42 0 0.58 1; 0 0 0 0; 0.42 0 0.58 1; 0.42 0 0.58 1" additive="sum" /></path>
</g>
</g>
</svg>