<?xml version="1.0" encoding="UTF-8"?>
<svg xmlns="http://www.w3.org/2000/svg" xmlns:xlink="http://www.w3.org/1999/xlink" width="128" height="128" viewBox="0 0 128 128">
<path fill-rule="nonzero" fill="rgb(100%, 100%, 100%)" fill-opacity="1" d="M 53 86 C 53 73.851562 43.148438 64 31 64 C 18.851562 64 9 73.851562 9 86 Z M 53 86 "/>
<path fill-rule="nonzero" fill="rgb(100%, 100%, 100%)" fill-opacity="1" d="M 9 42 C 9 54.148438 18.851562 64 31 64 C 43.148438 64 53 54.148438 53 42 Z M 9 42 "/>
<path fill-rule="nonzero" fill="rgb(100%, 100%, 100%)" fill-opacity="1" d="M 53 64 C 53 76.148438 62.851562 86 75 86 C 87.148438 86 97 76.148438 97 64 Z M 53 64 "/>
<path fill-rule="nonzero" fill="rgb(100%, 100%, 100%)" fill-opacity="1" d="M 119 64 C 119 51.851562 109.148438 42 97 42 C 84.851562 42 75 51.851562 75 64 Z M 119 64 "/>
</svg>
