<?xml version='1.0' encoding='utf-8'?>
<svg xmlns="http://www.w3.org/2000/svg" width="128" height="128" viewBox="0 0 128 128">
<path fill="none" stroke-width="27.859905" stroke-linecap="butt" stroke-linejoin="miter" stroke="rgb(100%, 68.235294%, 0%)" stroke-opacity="1" stroke-miterlimit="10" d="M -77.577348 -90.509668 L -77.577348 90.509668 " transform="matrix(0.707107, 0.707107, -0.707107, 0.707107, 64, 64)" />
<path fill="none" stroke-width="27.859905" stroke-linecap="butt" stroke-linejoin="miter" stroke="rgb(96.358543%, 58.487395%, 13.557423%)" stroke-opacity="1" stroke-miterlimit="10" d="M -51.718232 -90.509668 L -51.718232 90.509668 " transform="matrix(0.707107, 0.707107, -0.707107, 0.707107, 64, 64)" />
<path fill="none" stroke-width="27.859905" stroke-linecap="butt" stroke-linejoin="miter" stroke="rgb(92.717087%, 48.739496%, 27.114846%)" stroke-opacity="1" stroke-miterlimit="10" d="M -25.859116 -90.509668 L -25.859116 90.509668 " transform="matrix(0.707107, 0.707107, -0.707107, 0.707107, 64, 64)" />
<path fill="none" stroke-width="27.859905" stroke-linecap="butt" stroke-linejoin="miter" stroke="rgb(89.07563%, 38.991597%, 40.672269%)" stroke-opacity="1" stroke-miterlimit="10" d="M 0 -90.509668 L 0 90.509668 " transform="matrix(0.707107, 0.707107, -0.707107, 0.707107, 64, 64)" />
<path fill="none" stroke-width="27.859905" stroke-linecap="butt" stroke-linejoin="miter" stroke="rgb(85.434174%, 29.243697%, 54.229692%)" stroke-opacity="1" stroke-miterlimit="10" d="M 25.859116 -90.509668 L 25.859116 90.509668 " transform="matrix(0.707107, 0.707107, -0.707107, 0.707107, 64, 64)" />
<path fill="none" stroke-width="27.859905" stroke-linecap="butt" stroke-linejoin="miter" stroke="rgb(81.792717%, 19.495798%, 67.787115%)" stroke-opacity="1" stroke-miterlimit="10" d="M 51.718232 -90.509668 L 51.718232 90.509668 " transform="matrix(0.707107, 0.707107, -0.707107, 0.707107, 64, 64)" />
<path fill="none" stroke-width="27.859905" stroke-linecap="butt" stroke-linejoin="miter" stroke="rgb(78.151261%, 9.747899%, 81.344538%)" stroke-opacity="1" stroke-miterlimit="10" d="M 77.577348 -90.509668 L 77.577348 90.509668 " transform="matrix(0.707107, 0.707107, -0.707107, 0.707107, 64, 64)" />
<path fill-rule="nonzero" fill="rgb(100%, 100%, 100%)" fill-opacity="1" d="M 59.902344 84.480469 C 59.902344 73.167969 50.734375 64 39.425781 64 C 28.113281 64 18.945312 73.167969 18.945312 84.480469 Z M 59.902344 84.480469 "><animateTransform attributeName="transform" type="translate" values="0,0; 0,0; 0,-20.48; 0,-20.48; 0,0; 0,0" dur="3s" keyTimes="0; 0.25; 0.35; 0.65; 0.75; 1" repeatCount="indefinite" calcMode="spline" keySplines="0.42 0 0.58 1; 0.42 0 0.58 1; 0 0 0 0; 0.42 0 0.58 1; 0.42 0 0.58 1" additive="sum" /></path>
<path fill-rule="nonzero" fill="rgb(100%, 100%, 100%)" fill-opacity="1" d="M 18.945312 43.519531 C 18.945312 54.832031 28.113281 64 39.425781 64 C 50.734375 64 59.902344 54.832031 59.902344 43.519531 Z M 18.945312 43.519531 "><animateTransform attributeName="transform" type="translate" values="0,0; 0,0; 0,20.48; 0,20.48; 0,0; 0,0" dur="3s" keyTimes="0; 0.25; 0.35; 0.65; 0.75; 1" repeatCount="indefinite" calcMode="spline" keySplines="0.42 0 0.58 1; 0.42 0 0.58 1; 0 0 0 0; 0.42 0 0.58 1; 0.42 0 0.58 1" additive="sum" /></path>
<path fill-rule="nonzero" fill="rgb(100%, 100%, 100%)" fill-opacity="1" d="M 57.855469 64 C 57.855469 75.3125 67.023438 84.480469 78.335938 84.480469 C 89.648438 84.480469 98.816406 75.3125 98.816406 64 Z M 57.855469 64 "><animateTransform attributeName="transform" type="translate" values="0,0; 0,0; 10.24,0; 10.24,0; 0,0; 0,0" dur="3s" keyTimes="0; 0.25; 0.35; 0.65; 0.75; 1" repeatCount="indefinite" calcMode="spline" keySplines="0.42 0 0.58 1; 0.42 0 0.58 1; 0 0 0 0; 0.42 0 0.58 1; 0.42 0 0.58 1" additive="sum" /></path>
<path fill-rule="nonzero" fill="rgb(100%, 100%, 100%)" fill-opacity="1" d="M 119.296875 64 C 119.296875 52.6875 110.125 43.519531 98.816406 43.519531 C 87.503906 43.519531 78.335938 52.6875 78.335938 64 Z M 119.296875 64 "><animateTransform attributeName="transform" type="translate" values="0,0; 0,0; -10.24,0; -10.24,0; 0,0; 0,0" dur="3s" keyTimes="0; 0.25; 0.35; 0.65; 0.75; 1" repeatCount="indefinite" calcMode="spline" keySplines="0.42 0 0.58 1; 0.42 0 0.58 1; 0 0 0 0; 0.42 0 0.58 1; 0.42 0 0.58 1" additive="sum" /></path>
</svg>