<?xml version='1.0' encoding='utf-8'?>
<svg xmlns="http://www.w3.org/2000/svg" width="128" height="128" viewBox="0 0 128 128">
<path fill="none" stroke-width="27.859905" stroke-linecap="butt" stroke-linejoin="miter" stroke="rgb(100%, 68.235294%, 0%)" stroke-opacity="1" stroke-miterlimit="10" d="M -77.577348 -90.509668 L -77.577348 90.509668 " transform="matrix(0.707107, 0.707107, -0.707107, 0.707107, 64, 64)" />
<path fill="none" stroke-width="27.859905" stroke-linecap="butt" stroke-linejoin="miter" stroke="rgb(96.358543%, 58.487395%, 13.557423%)" stroke-opacity="1" stroke-miterlimit="10" d="M -51.718232 -90.509668 L -51.718232 90.509668 " transform="matrix(0.707107, 0.707107, -0.707107, 0.707107, 64, 64)" />
<path fill="none" stroke-width="27.859905" stroke-linecap="butt" stroke-linejoin="miter" stroke="rgb(92.717087%, 48.739496%, 27.114846%)" stroke-opacity="1" stroke-miterlimit="10" d="M -25.859116 -90.509668 L -25.859116 90.509668 " transform="matrix(0.707107, 0.707107, -0.707107, 0.707107, 64, 64)" />
<path fill="none" stroke-width="27.859905" stroke-linecap="butt" stroke-linejoin="miter" stroke="rgb(89.07563%, 38.991597%, 40.672269%)" stroke-opacity="1" stroke-miterlimit="10" d="M 0 -90.509668 L 0 90.509668 " transform="matrix(0.707107, 0.707107, -0.707107, 0.707107, 64, 64)" />
<path fill="none" stroke-width="27.859905" stroke-linecap="butt" stroke-linejoin="miter" stroke="rgb(85.434174%, 29.243697%, 54.229692%)" stroke-opacity="1" stroke-miterlimit="10" d="M 25.859116 -90.509668 L 25.859116 90.509668 " transform="matrix(0.707107, 0.707107, -0.707107, 0.707107, 64, 64)" />
<path fill="none" stroke-width="27.859905" stroke-linecap="butt" stroke-linejoin="miter" stroke="rgb(81.792717%, 19.495798%, 67.787115%)" stroke-opacity="1" stroke-miterlimit="10" d="M 51.718232 -90.509668 L 51.718232 90.509668 " transform="matrix(0.707107, 0.707107, -0.707107, 0.707107, 64, 64)" />
<path fill="none" stroke-width="27.859905" stroke-linecap="butt" stroke-linejoin="miter" stroke="rgb(78.151261%, 9.747899%, 81.344538%)" stroke-opacity="1" stroke-miterlimit="10" d="M 77.577348 -90.509668 L 77.577348 90.509668 " transform="matrix(0.707107, 0.707107, -0.707107, 0.707107, 64, 64)" />
<path fill-rule="nonzero" fill="rgb(100%, 100%, 100%)" fill-opacity="1" d="M 52.480469 87.039062 C 52.480469 74.316406 42.164062 64 29.441406 64 C 16.714844 64 6.398438 74.316406 6.398438 87.039062 Z M 52.480469 87.039062 "><animateTransform attributeName="transform" type="translate" values="0,0; 0,0; 0,-23.04; 0,-23.04; 0,0; 0,0" dur="3s" keyTimes="0; 0.25; 0.35; 0.65; 0.75; 1" repeatCount="indefinite" calcMode="spline" keySplines="0.42 0 0.58 1; 0.42 0 0.58 1; 0 0 0 0; 0.42 0 0.58 1; 0.42 0 0.58 1" additive="sum" /></path>
<path fill-rule="nonzero" fill="rgb(100%, 100%, 100%)" fill-opacity="1" d="M 6.398438 40.960938 C 6.398438 53.683594 16.714844 64 29.441406 64 C 42.164062 64 52.480469 53.683594 52.480469 40.960938 Z M 6.398438 40.960938 "><animateTransform attributeName="transform" type="translate" values="0,0; 0,0; 0,23.04; 0,23.04; 0,0; 0,0" dur="3s" keyTimes="0; 0.25; 0.35; 0.65; 0.75; 1" repeatCount="indefinite" calcMode="spline" keySplines="0.42 0 0.58 1; 0.42 0 0.58 1; 0 0 0 0; 0.42 0 0.58 1; 0.42 0 0.58 1" additive="sum" /></path>
<path fill-rule="nonzero" fill="rgb(100%, 100%, 100%)" fill-opacity="1" d="M 52.480469 64 C 52.480469 76.726562 62.796875 87.039062 75.519531 87.039062 C 88.246094 87.039062 98.558594 76.726562 98.558594 64 Z M 52.480469 64 "><animateTransform attributeName="transform" type="translate" values="0,0; 0,0; 11.52,0; 11.52,0; 0,0; 0,0" dur="3s" keyTimes="0; 0.25; 0.35; 0.65; 0.75; 1" repeatCount="indefinite" calcMode="spline" keySplines="0.42 0 0.58 1; 0.42 0 0.58 1; 0 0 0 0; 0.42 0 0.58 1; 0.42 0 0.58 1" additive="sum" /></path>
<path fill-rule="nonzero" fill="rgb(100%, 100%, 100%)" fill-opacity="1" d="M 121.601562 64 C 121.601562 51.273438 111.285156 40.960938 98.558594 40.960938 C 85.835938 40.960938 75.519531 51.273438 75.519531 64 Z M 121.601562 64 "><animateTransform attributeName="transform" type="translate" values="0,0; 0,0; -11.52,0; -11.52,0; 0,0; 0,0" dur="3s" keyTimes="0; 0.25; 0.35; 0.65; 0.75; 1" repeatCount="indefinite" calcMode="spline" keySplines="0.42 0 0.58 1; 0.42 0 0.58 1; 0 0 0 0; 0.42 0 0.58 1; 0.42 0 0.58 1" additive="sum" /></path>
</svg>