<?xml version="1.0" encoding="UTF-8" standalone="no"?>
<!DOCTYPE svg PUBLIC "-//W3C//DTD SVG 1.1//EN" "http://www.w3.org/Graphics/SVG/1.1/DTD/svg11.dtd">
<svg width="100%" height="100%" viewBox="0 0 311 208" version="1.1" xmlns="http://www.w3.org/2000/svg" xmlns:xlink="http://www.w3.org/1999/xlink" xml:space="preserve" xmlns:serif="http://www.serif.com/" style="fill-rule:evenodd;clip-rule:evenodd;stroke-linejoin:round;stroke-miterlimit:2;">
    <path d="M64.129,116.201C58.112,106.554 49.335,93.604 46.065,63.694C43.959,44.425 34.2,33.922 32.044,28.97C30.042,24.369 -0,12.835 -0,12.835C4.634,7.809 32.235,12.69 32.235,12.69C32.235,12.69 41.065,6.649 55.757,1.828C70.449,-2.993 89.642,2.822 99.685,6.632C111.409,11.078 131.839,27.173 136.22,32.098C140.601,37.023 145.028,40.066 149.307,41.422C165.327,46.499 192.377,57.971 196.24,60.205C200.104,62.439 213.196,68.83 229.709,65.448C252.944,60.69 303.894,23.038 303.894,23.038C303.894,23.038 289.012,37.561 294.085,36.46C299.158,35.36 308.137,31.246 308.137,31.246C308.137,31.246 291.42,43.154 289.908,45.816C288.396,48.479 298.737,47.287 299.066,47.219L250.591,78.071C250.591,78.071 251.909,77.843 260.733,79.66C252.985,82.957 245.165,92.808 245.165,92.808C245.165,92.808 253.251,92.314 257.275,92.677C239.088,100.268 233.617,120.093 233.617,120.093C246.981,130.099 246.984,140.891 246.984,140.891C234.036,132.063 218.208,132.226 218.208,132.226C197.485,151.883 175.686,158.033 158.641,159.225L163.712,191.376C163.712,191.376 164.612,193.976 167.283,196.396C168.399,197.407 179.603,201.332 179.603,201.332L179.97,205.62C179.97,205.62 166.686,202.549 162.235,202.494C158.986,202.453 153.266,205.288 153.266,205.288L147.421,205.343L144.734,201.874C144.734,201.874 153.783,197.902 155.75,193.038C158.366,186.568 149.726,160.298 149.726,160.298C137.465,160.275 125.858,156.153 124.395,155.887L116.111,185.476C116.111,185.476 119.858,190.758 125.456,193.649C127.796,194.857 138.167,198.368 138.167,198.368L139.766,203.843C139.766,203.843 122.218,200.575 113.272,201.121C103.52,201.716 85.346,206.685 85.346,206.685L77.315,206.542C77.315,206.542 79.143,202.115 80.9,201C86.736,197.298 102.42,191.38 106.833,184.329C111.246,177.278 113.858,152.567 113.858,152.567C106.335,150.24 98.302,146.851 83.607,135.789C75.649,129.797 69.002,124.014 64.129,116.201Z" style="fill:rgb(255,0,142);"/>
</svg>
